# 3ds Max Wavefront OBJ Exporter v0.99 - (c)2007 guruware
# File Created: 14.09.2024 14:52:41

mtllib Carro_Llanta04.mtl

#
# object Llanta_04
#

v  4.9514 0.1229 0.0261
v  4.9514 -0.1171 13.9461
v  4.9514 -5.4271 12.7961
v  4.9514 5.2229 12.9861
v  4.9514 9.7929 10.0461
v  4.9514 12.8929 5.5861
v  4.9514 14.0429 0.2761
v  4.9514 13.0729 -5.0739
v  4.9514 10.1329 -9.6439
v  4.9514 5.6729 -12.7339
v  4.9514 0.3629 -13.8939
v  4.9514 -4.9771 -12.9239
v  4.9514 -9.5471 -9.9839
v  4.9514 -12.6471 -5.5239
v  4.9514 -13.7971 -0.2139
v  4.9514 -12.8271 5.1361
v  4.9514 -9.8971 9.7061
v  -5.0086 0.1229 0.0261
v  -5.0086 -5.4271 12.7961
v  -5.0086 -0.1171 13.9461
v  -5.0086 -9.8971 9.7061
v  -5.0086 -12.8271 5.1361
v  -5.0086 -13.7971 -0.2139
v  -5.0086 -12.6471 -5.5239
v  -5.0086 -9.5471 -9.9839
v  -5.0086 -4.9771 -12.9239
v  -5.0086 0.3629 -13.8939
v  -5.0086 5.6729 -12.7339
v  -5.0086 10.1329 -9.6439
v  -5.0086 13.0729 -5.0739
v  -5.0086 14.0429 0.2761
v  -5.0086 12.8929 5.5861
v  -5.0086 9.7929 10.0461
v  -5.0086 5.2229 12.9861
# 34 vertices

vn 1.0000 0.0000 -0.0000
vn -1.0000 0.0000 -0.0000
vn 0.0000 -0.7193 0.6947
vn -0.0004 -0.4185 0.9082
vn 0.0000 -0.9303 0.3669
vn 0.0000 -0.9303 0.3668
vn -0.0003 -0.9998 -0.0197
vn -0.0012 -0.9029 -0.4299
vn -0.0003 -0.6887 -0.7250
vn -0.0004 -0.3762 -0.9265
vn 0.0000 0.0177 -0.9998
vn 0.0000 0.3984 -0.9172
vn -0.0003 0.7151 -0.6990
vn 0.0000 0.9306 -0.3660
vn 0.0000 0.9306 -0.3661
vn -0.0003 0.9999 -0.0101
vn 0.0000 0.9999 -0.0101
vn -0.0003 0.9182 0.3961
vn -0.0002 0.6998 0.7143
vn 0.0000 0.3668 0.9303
vn 0.0000 0.3669 0.9303
vn 0.0000 -0.0177 0.9998
# 22 vertex normals

vt 0.7789 0.7613 0.0000
vt 0.7162 0.7613 0.0000
vt 0.7202 0.7378 0.0000
vt 0.7202 0.7847 0.0000
vt 0.7339 0.8043 0.0000
vt 0.7554 0.8180 0.0000
vt 0.7789 0.8239 0.0000
vt 0.8023 0.8180 0.0000
vt 0.8219 0.8043 0.0000
vt 0.8356 0.7847 0.0000
vt 0.8395 0.7613 0.0000
vt 0.8356 0.7378 0.0000
vt 0.8219 0.7182 0.0000
vt 0.8023 0.7065 0.0000
vt 0.7789 0.7006 0.0000
vt 0.7554 0.7065 0.0000
vt 0.7339 0.7182 0.0000
vt 0.7378 0.6751 0.0000
vt 0.6986 0.6458 0.0000
vt 0.6399 0.6595 0.0000
vt 0.6986 0.6595 0.0000
vt 0.6399 0.6478 0.0000
vt 0.6399 0.6341 0.0000
vt 0.6986 0.6341 0.0000
vt 0.6986 0.6204 0.0000
vt 0.6380 0.6204 0.0000
vt 0.6380 0.6067 0.0000
vt 0.6986 0.6067 0.0000
vt 0.6986 0.5930 0.0000
vt 0.6380 0.5949 0.0000
vt 0.6380 0.5812 0.0000
vt 0.6986 0.5812 0.0000
vt 0.6986 0.5675 0.0000
vt 0.6380 0.5675 0.0000
vt 0.6380 0.5538 0.0000
vt 0.6986 0.5538 0.0000
vt 0.6986 0.5401 0.0000
vt 0.6380 0.5421 0.0000
vt 0.6380 0.5284 0.0000
vt 0.6986 0.5284 0.0000
vt 0.6986 0.5147 0.0000
vt 0.6380 0.5147 0.0000
vt 0.6380 0.5010 0.0000
vt 0.6986 0.5010 0.0000
vt 0.6986 0.4873 0.0000
vt 0.6380 0.4892 0.0000
vt 0.6380 0.4755 0.0000
vt 0.6986 0.4755 0.0000
vt 0.6399 0.6732 0.0000
vt 0.6986 0.6732 0.0000
vt 0.6986 0.4618 0.0000
vt 0.6380 0.4618 0.0000
# 52 texture coords

o Llanta_04
g Llanta_04
usemtl tex1_png
s 1
f 1/1/1 2/2/1 3/3/1 
f 1/1/1 4/4/1 2/2/1 
f 1/1/1 5/5/1 4/4/1 
f 1/1/1 6/6/1 5/5/1 
f 1/1/1 7/7/1 6/6/1 
f 1/1/1 8/8/1 7/7/1 
f 1/1/1 9/9/1 8/8/1 
f 1/1/1 10/10/1 9/9/1 
f 1/1/1 11/11/1 10/10/1 
f 1/1/1 12/12/1 11/11/1 
f 1/1/1 13/13/1 12/12/1 
f 1/1/1 14/14/1 13/13/1 
f 1/1/1 15/15/1 14/14/1 
f 1/1/1 16/16/1 15/15/1 
f 1/1/1 17/17/1 16/16/1 
f 1/1/1 3/3/1 17/17/1 
f 18/18/2 19/18/2 20/18/2 
f 18/18/2 21/18/2 19/18/2 
f 18/18/2 22/18/2 21/18/2 
f 18/18/2 23/18/2 22/18/2 
f 18/18/2 24/18/2 23/18/2 
f 18/18/2 25/18/2 24/18/2 
f 18/18/2 26/18/2 25/18/2 
f 18/18/2 27/18/2 26/18/2 
f 18/18/2 28/18/2 27/18/2 
f 18/18/2 29/18/2 28/18/2 
f 18/18/2 30/18/2 29/18/2 
f 18/18/2 31/18/2 30/18/2 
f 18/18/2 32/18/2 31/18/2 
f 18/18/2 33/18/2 32/18/2 
f 18/18/2 34/18/2 33/18/2 
f 18/18/2 20/18/2 34/18/2 
f 21/19/3 3/20/4 19/21/4 
f 21/19/3 17/22/3 3/20/4 
f 21/19/3 16/23/5 17/22/3 
f 21/19/3 22/24/6 16/23/5 
f 23/25/7 16/23/5 22/24/6 
f 23/25/7 15/26/7 16/23/5 
f 23/25/7 14/27/8 15/26/7 
f 23/25/7 24/28/8 14/27/8 
f 25/29/9 14/27/8 24/28/8 
f 25/29/9 13/30/9 14/27/8 
f 25/29/9 12/31/10 13/30/9 
f 25/29/9 26/32/10 12/31/10 
f 27/33/11 12/31/10 26/32/10 
f 27/33/11 11/34/11 12/31/10 
f 27/33/11 10/35/12 11/34/11 
f 27/33/11 28/36/12 10/35/12 
f 29/37/13 10/35/12 28/36/12 
f 29/37/13 9/38/13 10/35/12 
f 29/37/13 8/39/14 9/38/13 
f 29/37/13 30/40/15 8/39/14 
f 31/41/16 8/39/14 30/40/15 
f 31/41/16 7/42/17 8/39/14 
f 31/41/16 6/43/18 7/42/17 
f 31/41/16 32/44/18 6/43/18 
f 33/45/19 6/43/18 32/44/18 
f 33/45/19 5/46/19 6/43/18 
f 33/45/19 4/47/20 5/46/19 
f 33/45/19 34/48/21 4/47/20 
f 2/49/22 20/50/22 3/20/4 
f 3/20/4 20/50/22 19/21/4 
f 34/48/21 20/51/22 4/47/20 
f 4/47/20 20/51/22 2/52/22 
# 64 faces

