# 3ds Max Wavefront OBJ Exporter v0.99 - (c)2007 guruware
# File Created: 14.09.2024 14:52:26

mtllib Carro_Llanta03.mtl

#
# object Llanta_03
#

v  -4.9807 -0.0914 -0.0630
v  -4.9807 -5.6414 12.7070
v  -4.9807 -0.3314 13.8570
v  -4.9807 -10.1114 9.6170
v  -4.9807 -13.0414 5.0470
v  -4.9807 -14.0114 -0.3030
v  -4.9807 -12.8614 -5.6130
v  -4.9807 -9.7614 -10.0730
v  -4.9807 -5.1914 -13.0130
v  -4.9807 0.1486 -13.9830
v  -4.9807 5.4586 -12.8230
v  -4.9807 9.9186 -9.7330
v  -4.9807 12.8586 -5.1630
v  -4.9807 13.8286 0.1870
v  -4.9807 12.6786 5.4970
v  -4.9807 9.5786 9.9570
v  -4.9807 5.0086 12.8970
v  4.9694 -0.0914 -0.0630
v  4.9694 -0.3314 13.8570
v  4.9694 -5.6414 12.7070
v  4.9694 5.0086 12.8970
v  4.9694 9.5786 9.9570
v  4.9694 12.6786 5.4970
v  4.9694 13.8286 0.1870
v  4.9693 12.8586 -5.1630
v  4.9693 9.9186 -9.7330
v  4.9693 5.4586 -12.8230
v  4.9693 0.1486 -13.9830
v  4.9693 -5.1914 -13.0130
v  4.9693 -9.7614 -10.0730
v  4.9693 -12.8614 -5.6130
v  4.9694 -14.0114 -0.3030
v  4.9694 -13.0414 5.0470
v  4.9694 -10.1114 9.6170
# 34 vertices

vn -1.0000 0.0000 -0.0000
vn 1.0000 0.0000 -0.0000
vn -0.0004 -0.4185 0.9082
vn 0.0000 -0.0177 0.9998
vn 0.0000 -0.7193 0.6947
vn 0.0000 -0.9303 0.3668
vn -0.0003 -0.9998 -0.0197
vn -0.0012 -0.9029 -0.4299
vn -0.0003 -0.6887 -0.7250
vn -0.0004 -0.3762 -0.9265
vn 0.0000 0.0177 -0.9998
vn 0.0000 0.3983 -0.9172
vn -0.0003 0.7151 -0.6990
vn 0.0000 0.9306 -0.3660
vn 0.0000 0.9999 -0.0101
vn -0.0002 0.9999 -0.0101
vn -0.0003 0.9182 0.3961
vn -0.0002 0.6999 0.7143
vn -0.0002 0.6998 0.7143
vn 0.0000 0.3667 0.9303
vn 0.0000 0.3668 0.9303
# 21 vertex normals

vt 0.7789 0.7613 0.0000
vt 0.7202 0.7378 0.0000
vt 0.7162 0.7613 0.0000
vt 0.7339 0.7182 0.0000
vt 0.7554 0.7065 0.0000
vt 0.7789 0.7006 0.0000
vt 0.8023 0.7065 0.0000
vt 0.8219 0.7182 0.0000
vt 0.8356 0.7378 0.0000
vt 0.8395 0.7613 0.0000
vt 0.8356 0.7847 0.0000
vt 0.8219 0.8043 0.0000
vt 0.8023 0.8180 0.0000
vt 0.7789 0.8239 0.0000
vt 0.7554 0.8180 0.0000
vt 0.7339 0.8043 0.0000
vt 0.7202 0.7847 0.0000
vt 0.7378 0.6751 0.0000
vt 0.6399 0.6595 0.0000
vt 0.6986 0.6732 0.0000
vt 0.6399 0.6732 0.0000
vt 0.6986 0.6595 0.0000
vt 0.6986 0.6458 0.0000
vt 0.6399 0.6478 0.0000
vt 0.6399 0.6341 0.0000
vt 0.6986 0.6341 0.0000
vt 0.6986 0.6204 0.0000
vt 0.6380 0.6204 0.0000
vt 0.6380 0.6067 0.0000
vt 0.6986 0.6067 0.0000
vt 0.6986 0.5930 0.0000
vt 0.6380 0.5949 0.0000
vt 0.6380 0.5812 0.0000
vt 0.6986 0.5812 0.0000
vt 0.6986 0.5675 0.0000
vt 0.6380 0.5675 0.0000
vt 0.6380 0.5538 0.0000
vt 0.6986 0.5538 0.0000
vt 0.6986 0.5401 0.0000
vt 0.6380 0.5421 0.0000
vt 0.6380 0.5284 0.0000
vt 0.6986 0.5284 0.0000
vt 0.6986 0.5147 0.0000
vt 0.6380 0.5147 0.0000
vt 0.6380 0.5010 0.0000
vt 0.6986 0.5010 0.0000
vt 0.6986 0.4873 0.0000
vt 0.6380 0.4892 0.0000
vt 0.6380 0.4755 0.0000
vt 0.6986 0.4755 0.0000
vt 0.6986 0.4618 0.0000
vt 0.6380 0.4618 0.0000
# 52 texture coords

o Llanta_03
g Llanta_03
usemtl tex1_png
s 1
f 1/1/1 2/2/1 3/3/1 
f 1/1/1 4/4/1 2/2/1 
f 1/1/1 5/5/1 4/4/1 
f 1/1/1 6/6/1 5/5/1 
f 1/1/1 7/7/1 6/6/1 
f 1/1/1 8/8/1 7/7/1 
f 1/1/1 9/9/1 8/8/1 
f 1/1/1 10/10/1 9/9/1 
f 1/1/1 11/11/1 10/10/1 
f 1/1/1 12/12/1 11/11/1 
f 1/1/1 13/13/1 12/12/1 
f 1/1/1 14/14/1 13/13/1 
f 1/1/1 15/15/1 14/14/1 
f 1/1/1 16/16/1 15/15/1 
f 1/1/1 17/17/1 16/16/1 
f 1/1/1 3/3/1 17/17/1 
f 18/18/2 19/18/2 20/18/2 
f 18/18/2 21/18/2 19/18/2 
f 18/18/2 22/18/2 21/18/2 
f 18/18/2 23/18/2 22/18/2 
f 18/18/2 24/18/2 23/18/2 
f 18/18/2 25/18/2 24/18/2 
f 18/18/2 26/18/2 25/18/2 
f 18/18/2 27/18/2 26/18/2 
f 18/18/2 28/18/2 27/18/2 
f 18/18/2 29/18/2 28/18/2 
f 18/18/2 30/18/2 29/18/2 
f 18/18/2 31/18/2 30/18/2 
f 18/18/2 32/18/2 31/18/2 
f 18/18/2 33/18/2 32/18/2 
f 18/18/2 34/18/2 33/18/2 
f 18/18/2 20/18/2 34/18/2 
f 2/19/3 19/20/4 3/21/4 
f 2/19/3 20/22/3 19/20/4 
f 2/19/3 34/23/5 20/22/3 
f 2/19/3 4/24/5 34/23/5 
f 5/25/6 34/23/5 4/24/5 
f 5/25/6 33/26/6 34/23/5 
f 5/25/6 32/27/7 33/26/6 
f 5/25/6 6/28/7 32/27/7 
f 7/29/8 32/27/7 6/28/7 
f 7/29/8 31/30/8 32/27/7 
f 7/29/8 30/31/9 31/30/8 
f 7/29/8 8/32/9 30/31/9 
f 9/33/10 30/31/9 8/32/9 
f 9/33/10 29/34/10 30/31/9 
f 9/33/10 28/35/11 29/34/10 
f 9/33/10 10/36/11 28/35/11 
f 11/37/12 28/35/11 10/36/11 
f 11/37/12 27/38/12 28/35/11 
f 11/37/12 26/39/13 27/38/12 
f 11/37/12 12/40/13 26/39/13 
f 13/41/14 26/39/13 12/40/13 
f 13/41/14 25/42/14 26/39/13 
f 13/41/14 24/43/15 25/42/14 
f 13/41/14 14/44/16 24/43/15 
f 15/45/17 24/43/15 14/44/16 
f 15/45/17 23/46/17 24/43/15 
f 15/45/17 22/47/18 23/46/17 
f 15/45/17 16/48/19 22/47/18 
f 17/49/20 22/47/18 16/48/19 
f 17/49/20 21/50/21 22/47/18 
f 17/49/20 19/51/4 21/50/21 
f 17/49/20 3/52/4 19/51/4 
# 64 faces

