# 3ds Max Wavefront OBJ Exporter v0.99 - (c)2007 guruware
# File Created: 27.09.2024 22:17:19

mtllib Carro_Llanta.mtl

#
# object Carro_Llanta
#

v  5.0417 0.2694 0.0436
v  5.0417 0.0294 13.9636
v  5.0417 -5.2806 12.8136
v  5.0417 5.3794 12.9936
v  5.0417 9.9394 10.0536
v  5.0417 13.0394 5.5936
v  5.0417 14.1894 0.2836
v  5.0417 13.2294 -5.0564
v  5.0417 10.2894 -9.6264
v  5.0417 5.8194 -12.7264
v  5.0417 0.5194 -13.8764
v  5.0417 -4.8306 -12.9164
v  5.0417 -9.4006 -9.9764
v  5.0417 -12.5006 -5.5064
v  5.0417 -13.6506 -0.1964
v  5.0417 -12.6806 5.1436
v  5.0417 -9.7406 9.7136
v  -4.9183 0.2694 0.0436
v  -4.9183 -5.2806 12.8136
v  -4.9183 0.0294 13.9636
v  -4.9183 -9.7406 9.7136
v  -4.9183 -12.6806 5.1436
v  -4.9183 -13.6506 -0.1964
v  -4.9183 -12.5006 -5.5064
v  -4.9183 -9.4006 -9.9764
v  -4.9183 -4.8306 -12.9164
v  -4.9183 0.5194 -13.8764
v  -4.9183 5.8194 -12.7264
v  -4.9183 10.2894 -9.6264
v  -4.9183 13.2294 -5.0564
v  -4.9183 14.1894 0.2836
v  -4.9183 13.0394 5.5936
v  -4.9183 9.9394 10.0536
v  -4.9183 5.3794 12.9936
# 34 vertices

vn 1.0000 0.0000 -0.0000
vn -1.0000 0.0000 -0.0000
vn 0.0000 -0.7192 0.6948
vn -0.0004 -0.4185 0.9082
vn 0.0000 -0.9306 0.3661
vn -0.0003 -0.9998 -0.0197
vn -0.0013 -0.9029 -0.4299
vn -0.0012 -0.9028 -0.4300
vn -0.0003 -0.6887 -0.7250
vn -0.0004 -0.3762 -0.9265
vn 0.0000 0.0181 -0.9998
vn 0.0000 0.3992 -0.9169
vn -0.0003 0.7151 -0.6991
vn 0.0000 0.9303 -0.3668
vn 0.0000 0.9303 -0.3669
vn -0.0002 0.9999 -0.0101
vn 0.0000 0.9999 -0.0101
vn -0.0003 0.9182 0.3961
vn -0.0002 0.6998 0.7143
vn -0.0002 0.6999 0.7143
vn 0.0000 0.3662 0.9305
vn 0.0000 -0.0170 0.9999
# 22 vertex normals

vt 0.2375 0.5054 0.0000
vt 0.0096 0.5054 0.0000
vt 0.0311 0.3283 0.0000
vt 0.0311 0.6825 0.0000
vt 0.0737 0.8302 0.0000
vt 0.1523 0.9334 0.0000
vt 0.2375 0.9771 0.0000
vt 0.3230 0.9334 0.0000
vt 0.3944 0.8302 0.0000
vt 0.4443 0.6825 0.0000
vt 0.4585 0.5054 0.0000
vt 0.4443 0.3283 0.0000
vt 0.3944 0.1814 0.0000
vt 0.3230 0.0925 0.0000
vt 0.2375 0.0488 0.0000
vt 0.1523 0.0925 0.0000
vt 0.0737 0.1814 0.0000
vt 0.4511 0.4984 0.0000
vt 0.9908 0.8589 0.0000
vt 0.7492 0.9220 0.0000
vt 0.9908 0.9220 0.0000
vt 0.7513 0.8702 0.0000
vt 0.7470 0.8049 0.0000
vt 0.9908 0.8049 0.0000
vt 0.9908 0.7418 0.0000
vt 0.7458 0.7418 0.0000
vt 0.7458 0.6787 0.0000
vt 0.9908 0.6787 0.0000
vt 0.9908 0.6155 0.0000
vt 0.7458 0.6243 0.0000
vt 0.7458 0.5611 0.0000
vt 0.9908 0.5611 0.0000
vt 0.9908 0.4980 0.0000
vt 0.7458 0.4980 0.0000
vt 0.7458 0.4349 0.0000
vt 0.9908 0.4349 0.0000
vt 0.9908 0.3717 0.0000
vt 0.7458 0.3809 0.0000
vt 0.7458 0.3178 0.0000
vt 0.9908 0.3178 0.0000
vt 0.9908 0.2547 0.0000
vt 0.7458 0.2547 0.0000
vt 0.7458 0.1915 0.0000
vt 0.9908 0.1915 0.0000
vt 0.9908 0.1284 0.0000
vt 0.7458 0.1371 0.0000
vt 0.7458 0.0740 0.0000
vt 0.9908 0.0740 0.0000
vt 0.7492 0.9873 0.0000
vt 0.9908 0.9851 0.0000
vt 0.9908 0.0109 0.0000
vt 0.7458 0.0109 0.0000
# 52 texture coords

o Carro_Llanta
g Carro_Llanta
usemtl 02___Default
s 1
f 1/1/1 2/2/1 3/3/1 
f 1/1/1 4/4/1 2/2/1 
f 1/1/1 5/5/1 4/4/1 
f 1/1/1 6/6/1 5/5/1 
f 1/1/1 7/7/1 6/6/1 
f 1/1/1 8/8/1 7/7/1 
f 1/1/1 9/9/1 8/8/1 
f 1/1/1 10/10/1 9/9/1 
f 1/1/1 11/11/1 10/10/1 
f 1/1/1 12/12/1 11/11/1 
f 1/1/1 13/13/1 12/12/1 
f 1/1/1 14/14/1 13/13/1 
f 1/1/1 15/15/1 14/14/1 
f 1/1/1 16/16/1 15/15/1 
f 1/1/1 17/17/1 16/16/1 
f 1/1/1 3/3/1 17/17/1 
f 18/18/2 19/18/2 20/18/2 
f 18/18/2 21/18/2 19/18/2 
f 18/18/2 22/18/2 21/18/2 
f 18/18/2 23/18/2 22/18/2 
f 18/18/2 24/18/2 23/18/2 
f 18/18/2 25/18/2 24/18/2 
f 18/18/2 26/18/2 25/18/2 
f 18/18/2 27/18/2 26/18/2 
f 18/18/2 28/18/2 27/18/2 
f 18/18/2 29/18/2 28/18/2 
f 18/18/2 30/18/2 29/18/2 
f 18/18/2 31/18/2 30/18/2 
f 18/18/2 32/18/2 31/18/2 
f 18/18/2 33/18/2 32/18/2 
f 18/18/2 34/18/2 33/18/2 
f 18/18/2 20/18/2 34/18/2 
f 21/19/3 3/20/4 19/21/4 
f 21/19/3 17/22/3 3/20/4 
f 21/19/3 16/23/5 17/22/3 
f 21/19/3 22/24/5 16/23/5 
f 23/25/6 16/23/5 22/24/5 
f 23/25/6 15/26/6 16/23/5 
f 23/25/6 14/27/7 15/26/6 
f 23/25/6 24/28/8 14/27/7 
f 25/29/9 14/27/7 24/28/8 
f 25/29/9 13/30/9 14/27/7 
f 25/29/9 12/31/10 13/30/9 
f 25/29/9 26/32/10 12/31/10 
f 27/33/11 12/31/10 26/32/10 
f 27/33/11 11/34/11 12/31/10 
f 27/33/11 10/35/12 11/34/11 
f 27/33/11 28/36/12 10/35/12 
f 29/37/13 10/35/12 28/36/12 
f 29/37/13 9/38/13 10/35/12 
f 29/37/13 8/39/14 9/38/13 
f 29/37/13 30/40/15 8/39/14 
f 31/41/16 8/39/14 30/40/15 
f 31/41/16 7/42/17 8/39/14 
f 31/41/16 6/43/18 7/42/17 
f 31/41/16 32/44/18 6/43/18 
f 33/45/19 6/43/18 32/44/18 
f 33/45/19 5/46/20 6/43/18 
f 33/45/19 4/47/21 5/46/20 
f 33/45/19 34/48/21 4/47/21 
f 2/49/22 20/50/22 3/20/4 
f 3/20/4 20/50/22 19/21/4 
f 34/48/21 20/51/22 4/47/21 
f 4/47/21 20/51/22 2/52/22 
# 64 faces

